<svg xmlns="http://www.w3.org/2000/svg" xmlns:xlink="http://www.w3.org/1999/xlink" preserveAspectRatio="xMidYMid meet" version="1.0" viewBox="11.0 6.9 42.0 50.1" zoomAndPan="magnify" style="fill: rgb(0, 0, 0);" original_string_length="3532" width="52.35034759284596px" height="62.32184237243567px"><g id="__id17_s0d6ylkzqpc"><path d="M39.28741,27.07251c-2.03632-3.91309-5.66144-6.69159-9.91425-7.66376,1.49725-.95209,3.12946-2.36096,3.97839-4.31305,.93555-2.14893,.87891-4.33838-.1543-6.00684-.7749-1.25049-1.98975-2.00732-3.33398-2.07617-2.13477-.11279-3.29639,.81152-3.86328,1.51953-.56641-.70752-1.7251-1.62305-3.86328-1.51953-1.34424,.06885-2.55908,.82568-3.3335,2.07617-1.03369,1.66846-1.09033,3.85791-.15527,6.00635,.84442,1.94135,2.46307,3.34509,3.95349,4.29706-6.70239,1.54523-11.60144,7.59698-11.60144,14.60773,0,7.7774,6.00549,14.27643,13.70422,14.92657,2.59027,4.98462,7.65546,8.07343,13.29578,8.07343,8.27148,0,15-6.729,15-15,0-7.78027-6.0094-14.28137-13.71259-14.92749ZM19.56494,14.69629c-.80225-1.84326-.77002-3.69531,.08838-5.08105,.59912-.96729,1.52295-1.55176,2.53417-1.60352,.09815-.00537,.19288-.00781,.28516-.00781,2.37012,0,3.03369,1.58789,3.06006,1.6543,.07373,.19238,.2583,.31836,.46387,.31982h.00391c.20459,0,.38916-.12598,.46533-.31641,.0293-.07275,.73926-1.79395,3.34667-1.6499,1.01124,.05176,1.93506,.63623,2.53418,1.60352,.8584,1.38574,.89062,3.23779,.08838,5.08154-1.43359,3.29541-5.58057,4.9624-6.43506,5.27539-.85449-.31299-5.00146-1.97998-6.43506-5.27588Zm-7.56494,19.30371c0-6.92688,5.12494-12.84418,11.94409-13.83661,1.03784,.52814,1.81897,.78778,1.90161,.81464,.0498,.01611,.10205,.02441,.1543,.02441s.10449-.0083,.1543-.02441c.08252-.02686,.86206-.28607,1.89807-.81293,4.23468,.6156,7.91034,3.14404,10.04144,6.83545-1.13403-.01752-2.27716,.1192-3.34772,.36652-2.05914-2.73419-5.29596-4.36707-8.74609-4.36707-6.06543,0-11,4.93457-11,11,0,5.10156,3.60449,9.61377,8.56982,10.72803,.79688,.18018,1.61475,.27197,2.43018,.27197,.62646,0,1.25049-.05273,1.85352-.15674,5.2998-.89795,9.14648-5.4585,9.14648-10.84326,0-.65167-.07428-1.29083-.18751-1.91754,1.0033-.11951,2.0445-.0863,3.05677,.10553,.08038,.5918,.13074,1.1972,.13074,1.81201,0,6.48047-4.38672,12.0708-10.67285,13.5957-1.34375,.34082-2.78857,.50586-4.27393,.36523-7.31982-.48486-13.05322-6.61719-13.05322-13.96094Zm11.09039,9.56274c-4.14783-1.2608-7.09039-5.1684-7.09039-9.56274,0-5.51416,4.48584-10,10-10,2.99731,0,5.81403,1.35901,7.69232,3.64697-6.32971,1.88-10.69232,7.66846-10.69232,14.35303,0,.51532,.03693,1.03864,.09039,1.56274Zm4.90961-1.56274c0-4.72766,3.26495-8.74646,7.82849-9.75238,.10425,.57147,.17151,1.1474,.17151,1.75238,0,4.72772-3.26465,8.74658-7.82825,9.75244-.10449-.57111-.17175-1.14709-.17175-1.75244Zm12.90576-9.56396c4.14996,1.25946,7.09424,5.16809,7.09424,9.56396,0,5.51416-4.48633,10-10,10-2.99695,0-5.81415-1.35907-7.69208-3.64716,6.32983-1.88031,10.69208-7.66852,10.69208-14.35284,0-.5282-.03845-1.04907-.09424-1.56396Zm-2.90576,23.56396c-5.06189,0-9.62939-2.66437-12.12238-7.00507,.0412,.00031,.08112,.00507,.12238,.00507,1.12195,0,2.20923-.13684,3.24756-.37445,2.05933,2.73883,5.29913,4.37445,8.75244,4.37445,6.06543,0,11-4.93457,11-11,0-5.10156-3.60449-9.61377-8.56934-10.72803-1.4082-.31836-2.89746-.35498-4.28418-.11523-5.2998,.89795-9.14648,5.45801-9.14648,10.84326,0,.65234,.07458,1.29138,.18787,1.9176-1.00616,.12-2.04895,.0863-3.06354-.10675-.07666-.60736-.12433-1.21515-.12433-1.81085,0-6.48047,4.38672-12.0708,10.67285-13.5957,1.34473-.34082,2.79199-.50537,4.27441-.36523,7.31934,.48438,13.05273,6.61719,13.05273,13.96094,0,7.71973-6.28027,14-14,14Z" style="fill: inherit;"/></g></svg>